<svg xmlns="http://www.w3.org/2000/svg" version="1.1" xmlns:xlink="http://www.w3.org/1999/xlink" xmlns:svgjs="http://svgjs.dev/svgjs" width="200" height="200" viewBox="0 0 1000 1000"><g transform="matrix(1,0,0,1,-0.14221556886212738,-0.14221556886229791)"><svg viewBox="0 0 334 334" data-background-color="#111111" preserveAspectRatio="xMidYMid meet" height="1000" width="1000" xmlns="http://www.w3.org/2000/svg" xmlns:xlink="http://www.w3.org/1999/xlink"><g id="tight-bounds" transform="matrix(1,0,0,1,0.04749999999998522,0.04750000000001364)"><svg viewBox="0 0 333.90454557049503 333.90454557049503" height="333.90454557049503" width="333.90454557049503"><g><svg></svg></g><g><svg viewBox="0 0 333.90454557049503 333.90454557049503" height="333.90454557049503" width="333.90454557049503"><g><path d="M0 166.952c0-92.205 74.747-166.952 166.952-166.952 92.205 0 166.952 74.747 166.953 166.952 0 92.205-74.747 166.952-166.953 166.953-92.205 0-166.952-74.747-166.952-166.953zM166.952 316.63c82.665 0 149.677-67.013 149.678-149.678 0-82.665-67.013-149.677-149.678-149.677-82.665 0-149.677 67.013-149.677 149.677 0 82.665 67.013 149.677 149.677 149.678z" data-fill-palette-color="tertiary" fill="#a437db" stroke="transparent"></path><ellipse rx="160.27418187383762" ry="160.27418187383762" cx="166.95227278524752" cy="166.95227278524752" fill="#a437db" stroke="transparent" stroke-width="0" fill-opacity="1" data-fill-palette-color="tertiary"></ellipse></g><g transform="matrix(1,0,0,1,106.21582503779736,71.17305217166896)"><svg viewBox="0 0 121.47289549490031 191.55844122715712" height="191.55844122715712" width="121.47289549490031"><g><svg viewBox="0 0 121.47289549490031 191.55844122715712" height="191.55844122715712" width="121.47289549490031"><g><svg viewBox="0 0 121.47289549490031 191.55844122715712" height="191.55844122715712" width="121.47289549490031"><g><svg viewBox="0 0 121.47289549490031 191.55844122715712" height="191.55844122715712" width="121.47289549490031"><g id="textblocktransform"><svg viewBox="0 0 121.47289549490031 191.55844122715712" height="191.55844122715712" width="121.47289549490031" id="textblock"><g><svg viewBox="0 0 121.47289549490031 191.55844122715712" height="191.55844122715712" width="121.47289549490031"><g transform="matrix(1,0,0,1,0,0)"><svg width="121.47289549490031" viewBox="1.4500000476837158 -36.22999954223633 23.229999542236328 36.630001068115234" height="191.55844122715712" data-palette-color="#ffffff"><path d="M23.88-32.52L22.7-30.23Q22.48-29.85 22.23-29.66 21.98-29.48 21.58-29.48L21.58-29.48Q21.15-29.48 20.59-29.9 20.03-30.33 19.16-30.84 18.3-31.35 17.09-31.78 15.88-32.2 14.15-32.2L14.15-32.2Q12.53-32.2 11.28-31.76 10.03-31.33 9.19-30.58 8.35-29.83 7.93-28.81 7.5-27.8 7.5-26.63L7.5-26.63Q7.5-25.13 8.24-24.14 8.97-23.15 10.19-22.45 11.4-21.75 12.94-21.24 14.48-20.73 16.09-20.18 17.7-19.63 19.24-18.94 20.78-18.25 21.99-17.2 23.2-16.15 23.94-14.63 24.68-13.1 24.68-10.88L24.68-10.88Q24.68-8.53 23.88-6.46 23.08-4.4 21.54-2.88 20-1.35 17.76-0.48 15.53 0.4 12.68 0.4L12.68 0.4Q9.2 0.4 6.34-0.86 3.48-2.13 1.45-4.28L1.45-4.28 2.85-6.58Q3.05-6.85 3.34-7.04 3.63-7.23 3.98-7.23L3.98-7.23Q4.5-7.23 5.18-6.66 5.85-6.1 6.86-5.43 7.88-4.75 9.31-4.19 10.75-3.63 12.83-3.63L12.83-3.63Q14.55-3.63 15.9-4.1 17.25-4.58 18.19-5.44 19.13-6.3 19.63-7.5 20.13-8.7 20.13-10.18L20.13-10.18Q20.13-11.8 19.39-12.84 18.65-13.88 17.45-14.58 16.25-15.28 14.71-15.76 13.18-16.25 11.56-16.76 9.95-17.28 8.41-17.95 6.88-18.63 5.68-19.7 4.48-20.78 3.74-22.39 3-24 3-26.38L3-26.38Q3-28.28 3.74-30.05 4.48-31.83 5.88-33.2 7.28-34.58 9.34-35.4 11.4-36.23 14.08-36.23L14.08-36.23Q17.07-36.23 19.55-35.27 22.03-34.33 23.88-32.52L23.88-32.52Z" opacity="1" transform="matrix(1,0,0,1,0,0)" fill="#ffffff" class="wordmark-text-0" data-fill-palette-color="quaternary" id="text-0"></path></svg></g></svg></g></svg></g></svg></g><g></g></svg></g></svg></g></svg></g></svg></g><defs></defs></svg><rect width="333.90454557049503" height="333.90454557049503" fill="none" stroke="none" visibility="hidden"></rect></g></svg></g></svg>